<svg width="24" height="24" viewBox="0 0 24 24" fill="none" xmlns="http://www.w3.org/2000/svg">
<path d="M6.85741 0C3.36525 0 0.533325 2.98533 0.533325 6.66667V17.3333C0.533325 21.0147 3.36525 24 6.85741 24H16.9759C20.4681 24 23.3 21.0147 23.3 17.3333V6.66667C23.3 2.98533 20.4681 0 16.9759 0H6.85741ZM19.5056 2.66667C20.2037 2.66667 20.7704 3.264 20.7704 4C20.7704 4.736 20.2037 5.33333 19.5056 5.33333C18.8074 5.33333 18.2408 4.736 18.2408 4C18.2408 3.264 18.8074 2.66667 19.5056 2.66667ZM11.9167 5.33333C15.4088 5.33333 18.2408 8.31867 18.2408 12C18.2408 15.6813 15.4088 18.6667 11.9167 18.6667C8.42451 18.6667 5.59259 15.6813 5.59259 12C5.59259 8.31867 8.42451 5.33333 11.9167 5.33333ZM11.9167 8C10.9103 8 9.94519 8.42143 9.23359 9.17157C8.52199 9.92172 8.12222 10.9391 8.12222 12C8.12222 13.0609 8.52199 14.0783 9.23359 14.8284C9.94519 15.5786 10.9103 16 11.9167 16C12.923 16 13.8882 15.5786 14.5998 14.8284C15.3113 14.0783 15.7111 13.0609 15.7111 12C15.7111 10.9391 15.3113 9.92172 14.5998 9.17157C13.8882 8.42143 12.923 8 11.9167 8Z" fill="#404040"/>
</svg>
