<svg width="24" height="24" viewBox="0 0 24 24" fill="none" xmlns="http://www.w3.org/2000/svg">
<path d="M21.0315 0H3.32406C1.92644 0 0.794434 1.19333 0.794434 2.66667V21.3333C0.794434 22.8067 1.92644 24 3.32406 24H21.0315C22.4291 24 23.5611 22.8067 23.5611 21.3333V2.66667C23.5611 1.19333 22.4291 0 21.0315 0ZM8.38332 18.6667H5.19219V9.33333H8.38332V18.6667ZM6.73147 7.62267C5.7563 7.62267 5.10492 6.93733 5.10492 6.02267C5.10492 5.108 5.75503 4.42267 6.83898 4.42267C7.81415 4.42267 8.46553 5.108 8.46553 6.02267C8.46553 6.93733 7.81541 7.62267 6.73147 7.62267ZM19.7666 18.6667H16.678V13.5653C16.678 12.1547 15.8546 11.8293 15.546 11.8293C15.2373 11.8293 14.2078 12.0467 14.2078 13.5653C14.2078 13.7827 14.2078 18.6667 14.2078 18.6667H11.0167V9.33333H14.2078V10.636C14.6188 9.876 15.4422 9.33333 16.9866 9.33333C18.5309 9.33333 19.7666 10.636 19.7666 13.5653V18.6667Z" fill="#404040"/>
</svg>
