<svg width="283" height="62" viewBox="0 0 283 62" fill="none" xmlns="http://www.w3.org/2000/svg">
<g clip-path="url(#clip0)">
<g opacity="0.56">
<path opacity="0.56" d="M23.7195 7.15385C25.6929 7.15385 27.2927 5.5524 27.2927 3.57692C27.2927 1.60144 25.6929 0 23.7195 0C21.7461 0 20.1464 1.60144 20.1464 3.57692C20.1464 5.5524 21.7461 7.15385 23.7195 7.15385Z" fill="#9BC9F5"/>
<path opacity="0.56" d="M23.7195 34.5769C25.6929 34.5769 27.2927 32.9755 27.2927 31C27.2927 29.0245 25.6929 27.4231 23.7195 27.4231C21.7461 27.4231 20.1464 29.0245 20.1464 31C20.1464 32.9755 21.7461 34.5769 23.7195 34.5769Z" fill="#9BC9F5"/>
<path opacity="0.56" d="M23.7195 62C25.6929 62 27.2927 60.3986 27.2927 58.4231C27.2927 56.4476 25.6929 54.8462 23.7195 54.8462C21.7461 54.8462 20.1464 56.4476 20.1464 58.4231C20.1464 60.3986 21.7461 62 23.7195 62Z" fill="#9BC9F5"/>
<path opacity="0.56" d="M3.57317 7.15385C5.54658 7.15385 7.14634 5.5524 7.14634 3.57692C7.14634 1.60144 5.54658 0 3.57317 0C1.59976 0 0 1.60144 0 3.57692C0 5.5524 1.59976 7.15385 3.57317 7.15385Z" fill="#9BC9F5"/>
<path opacity="0.56" d="M3.57317 34.5769C5.54658 34.5769 7.14634 32.9755 7.14634 31C7.14634 29.0245 5.54658 27.4231 3.57317 27.4231C1.59976 27.4231 0 29.0245 0 31C0 32.9755 1.59976 34.5769 3.57317 34.5769Z" fill="#9BC9F5"/>
<path opacity="0.56" d="M3.57317 62C5.54658 62 7.14634 60.3986 7.14634 58.4231C7.14634 56.4476 5.54658 54.8462 3.57317 54.8462C1.59976 54.8462 0 56.4476 0 58.4231C0 60.3986 1.59976 62 3.57317 62Z" fill="#9BC9F5"/>
<path opacity="0.56" d="M64.0123 7.15385C65.9857 7.15385 67.5854 5.5524 67.5854 3.57692C67.5854 1.60144 65.9857 0 64.0123 0C62.0389 0 60.4391 1.60144 60.4391 3.57692C60.4391 5.5524 62.0389 7.15385 64.0123 7.15385Z" fill="#9BC9F5"/>
<path opacity="0.56" d="M64.0123 34.5769C65.9857 34.5769 67.5854 32.9755 67.5854 31C67.5854 29.0245 65.9857 27.4231 64.0123 27.4231C62.0389 27.4231 60.4391 29.0245 60.4391 31C60.4391 32.9755 62.0389 34.5769 64.0123 34.5769Z" fill="#9BC9F5"/>
<path opacity="0.56" d="M64.0123 62C65.9857 62 67.5854 60.3986 67.5854 58.4231C67.5854 56.4476 65.9857 54.8462 64.0123 54.8462C62.0389 54.8462 60.4391 56.4476 60.4391 58.4231C60.4391 60.3986 62.0389 62 64.0123 62Z" fill="#9BC9F5"/>
<path opacity="0.56" d="M43.8659 7.15385C45.8393 7.15385 47.4391 5.5524 47.4391 3.57692C47.4391 1.60144 45.8393 0 43.8659 0C41.8925 0 40.2927 1.60144 40.2927 3.57692C40.2927 5.5524 41.8925 7.15385 43.8659 7.15385Z" fill="#9BC9F5"/>
<path opacity="0.56" d="M43.8659 34.5769C45.8393 34.5769 47.4391 32.9755 47.4391 31C47.4391 29.0245 45.8393 27.4231 43.8659 27.4231C41.8925 27.4231 40.2927 29.0245 40.2927 31C40.2927 32.9755 41.8925 34.5769 43.8659 34.5769Z" fill="#9BC9F5"/>
<path opacity="0.56" d="M43.8659 62C45.8393 62 47.4391 60.3986 47.4391 58.4231C47.4391 56.4476 45.8393 54.8462 43.8659 54.8462C41.8925 54.8462 40.2927 56.4476 40.2927 58.4231C40.2927 60.3986 41.8925 62 43.8659 62Z" fill="#9BC9F5"/>
<path opacity="0.56" d="M104.305 7.15385C106.278 7.15385 107.878 5.5524 107.878 3.57692C107.878 1.60144 106.278 0 104.305 0C102.332 0 100.732 1.60144 100.732 3.57692C100.732 5.5524 102.332 7.15385 104.305 7.15385Z" fill="#9BC9F5"/>
<path opacity="0.56" d="M104.305 34.5769C106.278 34.5769 107.878 32.9755 107.878 31C107.878 29.0245 106.278 27.4231 104.305 27.4231C102.332 27.4231 100.732 29.0245 100.732 31C100.732 32.9755 102.332 34.5769 104.305 34.5769Z" fill="#9BC9F5"/>
<path opacity="0.56" d="M104.305 62C106.278 62 107.878 60.3986 107.878 58.4231C107.878 56.4476 106.278 54.8462 104.305 54.8462C102.332 54.8462 100.732 56.4476 100.732 58.4231C100.732 60.3986 102.332 62 104.305 62Z" fill="#9BC9F5"/>
<path opacity="0.56" d="M84.1586 7.15385C86.132 7.15385 87.7318 5.5524 87.7318 3.57692C87.7318 1.60144 86.132 0 84.1586 0C82.1852 0 80.5854 1.60144 80.5854 3.57692C80.5854 5.5524 82.1852 7.15385 84.1586 7.15385Z" fill="#9BC9F5"/>
<path opacity="0.56" d="M84.1586 34.5769C86.132 34.5769 87.7318 32.9755 87.7318 31C87.7318 29.0245 86.132 27.4231 84.1586 27.4231C82.1852 27.4231 80.5854 29.0245 80.5854 31C80.5854 32.9755 82.1852 34.5769 84.1586 34.5769Z" fill="#9BC9F5"/>
<path opacity="0.56" d="M84.1586 62C86.132 62 87.7318 60.3986 87.7318 58.4231C87.7318 56.4476 86.132 54.8462 84.1586 54.8462C82.1852 54.8462 80.5854 56.4476 80.5854 58.4231C80.5854 60.3986 82.1852 62 84.1586 62Z" fill="#9BC9F5"/>
<path opacity="0.56" d="M144.598 7.15385C146.571 7.15385 148.171 5.5524 148.171 3.57692C148.171 1.60144 146.571 0 144.598 0C142.624 0 141.025 1.60144 141.025 3.57692C141.025 5.5524 142.624 7.15385 144.598 7.15385Z" fill="#9BC9F5"/>
<path opacity="0.56" d="M144.598 34.5769C146.571 34.5769 148.171 32.9755 148.171 31C148.171 29.0245 146.571 27.4231 144.598 27.4231C142.624 27.4231 141.025 29.0245 141.025 31C141.025 32.9755 142.624 34.5769 144.598 34.5769Z" fill="#9BC9F5"/>
<path opacity="0.56" d="M144.598 62C146.571 62 148.171 60.3986 148.171 58.4231C148.171 56.4476 146.571 54.8462 144.598 54.8462C142.624 54.8462 141.025 56.4476 141.025 58.4231C141.025 60.3986 142.624 62 144.598 62Z" fill="#9BC9F5"/>
<path opacity="0.56" d="M124.451 7.15385C126.425 7.15385 128.025 5.5524 128.025 3.57692C128.025 1.60144 126.425 0 124.451 0C122.478 0 120.878 1.60144 120.878 3.57692C120.878 5.5524 122.478 7.15385 124.451 7.15385Z" fill="#9BC9F5"/>
<path opacity="0.56" d="M124.451 34.5769C126.425 34.5769 128.025 32.9755 128.025 31C128.025 29.0245 126.425 27.4231 124.451 27.4231C122.478 27.4231 120.878 29.0245 120.878 31C120.878 32.9755 122.478 34.5769 124.451 34.5769Z" fill="#9BC9F5"/>
<path opacity="0.56" d="M124.451 62C126.425 62 128.025 60.3986 128.025 58.4231C128.025 56.4476 126.425 54.8462 124.451 54.8462C122.478 54.8462 120.878 56.4476 120.878 58.4231C120.878 60.3986 122.478 62 124.451 62Z" fill="#9BC9F5"/>
<path opacity="0.56" d="M184.89 7.15385C186.864 7.15385 188.464 5.5524 188.464 3.57692C188.464 1.60144 186.864 0 184.89 0C182.917 0 181.317 1.60144 181.317 3.57692C181.317 5.5524 182.917 7.15385 184.89 7.15385Z" fill="#9BC9F5"/>
<path opacity="0.56" d="M184.89 34.5769C186.864 34.5769 188.464 32.9755 188.464 31C188.464 29.0245 186.864 27.4231 184.89 27.4231C182.917 27.4231 181.317 29.0245 181.317 31C181.317 32.9755 182.917 34.5769 184.89 34.5769Z" fill="#9BC9F5"/>
<path opacity="0.56" d="M184.89 62C186.864 62 188.464 60.3986 188.464 58.4231C188.464 56.4476 186.864 54.8462 184.89 54.8462C182.917 54.8462 181.317 56.4476 181.317 58.4231C181.317 60.3986 182.917 62 184.89 62Z" fill="#9BC9F5"/>
<path opacity="0.56" d="M164.744 7.15385C166.717 7.15385 168.317 5.5524 168.317 3.57692C168.317 1.60144 166.717 0 164.744 0C162.771 0 161.171 1.60144 161.171 3.57692C161.171 5.5524 162.771 7.15385 164.744 7.15385Z" fill="#9BC9F5"/>
<path opacity="0.56" d="M164.744 34.5769C166.717 34.5769 168.317 32.9755 168.317 31C168.317 29.0245 166.717 27.4231 164.744 27.4231C162.771 27.4231 161.171 29.0245 161.171 31C161.171 32.9755 162.771 34.5769 164.744 34.5769Z" fill="#9BC9F5"/>
<path opacity="0.56" d="M164.744 62C166.717 62 168.317 60.3986 168.317 58.4231C168.317 56.4476 166.717 54.8462 164.744 54.8462C162.771 54.8462 161.171 56.4476 161.171 58.4231C161.171 60.3986 162.771 62 164.744 62Z" fill="#9BC9F5"/>
<path opacity="0.56" d="M225.183 7.15385C227.156 7.15385 228.756 5.5524 228.756 3.57692C228.756 1.60144 227.156 0 225.183 0C223.21 0 221.61 1.60144 221.61 3.57692C221.61 5.5524 223.21 7.15385 225.183 7.15385Z" fill="#9BC9F5"/>
<path opacity="0.56" d="M225.183 34.5769C227.156 34.5769 228.756 32.9755 228.756 31C228.756 29.0245 227.156 27.4231 225.183 27.4231C223.21 27.4231 221.61 29.0245 221.61 31C221.61 32.9755 223.21 34.5769 225.183 34.5769Z" fill="#9BC9F5"/>
<path opacity="0.56" d="M225.183 62C227.156 62 228.756 60.3986 228.756 58.4231C228.756 56.4476 227.156 54.8462 225.183 54.8462C223.21 54.8462 221.61 56.4476 221.61 58.4231C221.61 60.3986 223.21 62 225.183 62Z" fill="#9BC9F5"/>
<path opacity="0.56" d="M205.037 7.15385C207.01 7.15385 208.61 5.5524 208.61 3.57692C208.61 1.60144 207.01 0 205.037 0C203.063 0 201.464 1.60144 201.464 3.57692C201.464 5.5524 203.063 7.15385 205.037 7.15385Z" fill="#9BC9F5"/>
<path opacity="0.56" d="M205.037 34.5769C207.01 34.5769 208.61 32.9755 208.61 31C208.61 29.0245 207.01 27.4231 205.037 27.4231C203.063 27.4231 201.464 29.0245 201.464 31C201.464 32.9755 203.063 34.5769 205.037 34.5769Z" fill="#9BC9F5"/>
<path opacity="0.56" d="M205.037 62C207.01 62 208.61 60.3986 208.61 58.4231C208.61 56.4476 207.01 54.8462 205.037 54.8462C203.063 54.8462 201.464 56.4476 201.464 58.4231C201.464 60.3986 203.063 62 205.037 62Z" fill="#9BC9F5"/>
<path opacity="0.56" d="M265.476 7.15385C267.449 7.15385 269.049 5.5524 269.049 3.57692C269.049 1.60144 267.449 0 265.476 0C263.502 0 261.903 1.60144 261.903 3.57692C261.903 5.5524 263.502 7.15385 265.476 7.15385Z" fill="#9BC9F5"/>
<path opacity="0.56" d="M265.476 34.5769C267.449 34.5769 269.049 32.9755 269.049 31C269.049 29.0245 267.449 27.4231 265.476 27.4231C263.502 27.4231 261.903 29.0245 261.903 31C261.903 32.9755 263.502 34.5769 265.476 34.5769Z" fill="#9BC9F5"/>
<path opacity="0.56" d="M265.476 62C267.449 62 269.049 60.3986 269.049 58.4231C269.049 56.4476 267.449 54.8462 265.476 54.8462C263.502 54.8462 261.903 56.4476 261.903 58.4231C261.903 60.3986 263.502 62 265.476 62Z" fill="#9BC9F5"/>
<path opacity="0.56" d="M245.329 7.15385C247.303 7.15385 248.903 5.5524 248.903 3.57692C248.903 1.60144 247.303 0 245.329 0C243.356 0 241.756 1.60144 241.756 3.57692C241.756 5.5524 243.356 7.15385 245.329 7.15385Z" fill="#9BC9F5"/>
<path opacity="0.56" d="M245.329 34.5769C247.303 34.5769 248.903 32.9755 248.903 31C248.903 29.0245 247.303 27.4231 245.329 27.4231C243.356 27.4231 241.756 29.0245 241.756 31C241.756 32.9755 243.356 34.5769 245.329 34.5769Z" fill="#9BC9F5"/>
<path opacity="0.56" d="M245.329 62C247.303 62 248.903 60.3986 248.903 58.4231C248.903 56.4476 247.303 54.8462 245.329 54.8462C243.356 54.8462 241.756 56.4476 241.756 58.4231C241.756 60.3986 243.356 62 245.329 62Z" fill="#9BC9F5"/>
</g>
</g>
<defs>
<clipPath id="clip0">
<rect width="293" height="62" fill="white"/>
</clipPath>
</defs>
</svg>
