<svg width="65" height="64" viewBox="0 0 65 64" fill="none" xmlns="http://www.w3.org/2000/svg">
<path d="M47.0605 22.7543L48.9424 20.8723C49.6738 20.141 49.6738 18.9552 48.9424 18.2242C48.2111 17.4929 47.0257 17.4929 46.2944 18.2242L44.4124 20.1062C41.2549 17.4753 37.4181 15.886 33.3254 15.5139V11.7452H35.1355C36.1697 11.7452 37.008 10.9066 37.008 9.87244C37.008 8.83826 36.1697 8 35.1355 8H27.7699C26.7358 8 25.8975 8.83826 25.8975 9.87244C25.8975 10.9066 26.7358 11.7452 27.7699 11.7452H29.5801V15.5139C19.335 16.4456 11.1667 25.0522 11.1667 35.7137C11.1667 46.9257 20.2395 56 31.4529 56C42.6645 56 51.7388 46.9271 51.7388 35.7137C51.7388 30.9244 50.0894 26.3889 47.0605 22.7543ZM31.4526 52.2548C22.3321 52.2548 14.9115 44.8346 14.9115 35.7137C14.9115 26.5933 22.3321 19.1731 31.4526 19.1731C40.5734 19.1731 47.9936 26.5933 47.9936 35.7137C47.9936 44.8346 40.5734 52.2548 31.4526 52.2548ZM40.1307 27.036C40.862 27.7673 40.862 28.9531 40.1307 29.6841L32.7768 37.038C32.0455 37.7693 30.8597 37.7693 30.1287 37.038C29.3974 36.3066 29.3974 35.1208 30.1287 34.3899L37.4822 27.036C38.2135 26.3047 39.3993 26.3047 40.1307 27.036Z" fill="#3D78C6"/>
</svg>
