<svg width="51" height="58" viewBox="0 0 51 58" fill="none" xmlns="http://www.w3.org/2000/svg">
<path fill-rule="evenodd" clip-rule="evenodd" d="M38.8333 2.33331L38.8365 29.2673C37.9739 29.092 37.081 29 36.1667 29C28.8029 29 22.8333 34.9695 22.8333 42.3333C22.8333 49.6971 28.8029 55.6666 36.1667 55.6666H1.5V2.33331H38.8333Z" stroke="#3D78C6" stroke-width="3"/>
<path d="M49.5 42.3333C49.5 34.9695 43.5305 29 36.1667 29C28.8029 29 22.8333 34.9695 22.8333 42.3333C22.8333 49.6971 28.8029 55.6667 36.1667 55.6667C43.5305 55.6667 49.5 49.6971 49.5 42.3333Z" stroke="#3D78C6" stroke-width="3"/>
<path d="M37.2297 50.3333V48.4269C38.6103 48.2681 39.6672 47.8567 40.4003 47.1929C41.1334 46.5291 41.5 45.7319 41.5 44.8014C41.5 44.0525 41.2984 43.4482 40.8952 42.9886C40.492 42.5291 39.9941 42.183 39.4015 41.9503C38.8089 41.7177 38.085 41.5106 37.2297 41.3291V38.4354C38.1827 38.5376 39.1174 38.8326 40.0338 39.3205L40.9502 37.2269C39.9727 36.6482 38.7325 36.3021 37.2297 36.1886V34.3333H35.3969V36.2227C34.004 36.3702 32.9379 36.7815 32.1987 37.4567C31.4595 38.1319 31.0899 38.9404 31.0899 39.8822C31.0899 40.6425 31.2915 41.2525 31.6947 41.712C32.0979 42.1716 32.5989 42.5205 33.1976 42.7588C33.7963 42.9971 34.5294 43.2127 35.3969 43.4057V46.2482C34.7371 46.1915 34.0956 46.0553 33.4725 45.8397C32.8494 45.6241 32.3056 45.3574 31.8413 45.0397L30.8333 47.1163C31.3343 47.4794 31.9941 47.7858 32.8127 48.0354C33.6313 48.2851 34.4927 48.4326 35.3969 48.478V50.3333H37.2297ZM35.3969 40.9035C34.957 40.7787 34.621 40.6255 34.3889 40.444C34.1567 40.2624 34.0407 40.0298 34.0407 39.7461C34.0407 39.451 34.1506 39.1929 34.3706 38.9716C34.5905 38.7503 34.9326 38.5886 35.3969 38.4865V40.9035ZM37.2297 46.1801V43.8312C37.6573 43.9674 37.9842 44.1262 38.2102 44.3078C38.4362 44.4893 38.5493 44.722 38.5493 45.0057C38.5493 45.2893 38.4393 45.5333 38.2194 45.7376C37.9994 45.9418 37.6695 46.0893 37.2297 46.1801Z" fill="#3D78C6"/>
<path d="M9.5 11.6666H30.8333" stroke="#3D78C6" stroke-width="3" stroke-linecap="square"/>
<path d="M9.5 21H20.1667" stroke="#3D78C6" stroke-width="3" stroke-linecap="square"/>
</svg>
